<svg width="52" height="44" viewBox="0 0 52 44" fill="none" xmlns="http://www.w3.org/2000/svg">
<path d="M44.5087 34.3353C47.1368 34.3353 48.9595 34.7168 49.9769 35.4798C50.9942 36.3275 51.5029 37.8536 51.5029 40.0578C51.5029 41.4143 50.1888 42.3892 47.5607 42.9827C45.0173 43.6609 42.5164 44 40.0578 44C36.5819 44 33.2755 43.9576 30.1387 43.8728L10.8092 43.6185C10.3006 43.6185 8.81696 43.6185 6.35838 43.6185C3.98459 43.6185 2.33141 43.1522 1.39884 42.2197C0.466281 41.2871 0 39.8035 0 37.7688C0 36.4123 0.763006 35.4798 2.28902 34.9711C3.81503 34.5472 6.40077 34.3353 10.0462 34.3353H44.5087Z" fill="white"/>
<path d="M44.5087 17.1676C47.1368 17.1676 48.9595 17.5491 49.9769 18.3121C50.9942 19.1599 51.5029 20.6859 51.5029 22.8902C51.5029 24.2466 50.1888 25.2216 47.5607 25.815C45.0173 26.4933 42.5164 26.8324 40.0578 26.8324C36.5819 26.8324 33.2755 26.79 30.1387 26.7052L10.8092 26.4509C10.3006 26.4509 8.81696 26.4509 6.35838 26.4509C3.98459 26.4509 2.33141 25.9846 1.39884 25.052C0.466281 24.1195 0 22.6358 0 20.6012C0 19.2447 0.763006 18.3121 2.28902 17.8035C3.81503 17.3796 6.40077 17.1676 10.0462 17.1676H44.5087Z" fill="white"/>
<path d="M44.5087 0C47.1368 0 48.9595 0.381503 49.9769 1.14451C50.9942 1.99229 51.5029 3.5183 51.5029 5.72254C51.5029 7.079 50.1888 8.05395 47.5607 8.6474C45.0173 9.32563 42.5164 9.66474 40.0578 9.66474C36.5819 9.66474 33.2755 9.62235 30.1387 9.53757L10.8092 9.28324C10.3006 9.28324 8.81696 9.28324 6.35838 9.28324C3.98459 9.28324 2.33141 8.81696 1.39884 7.88439C0.466281 6.95183 0 5.46821 0 3.43353C0 2.07707 0.763006 1.14451 2.28902 0.635838C3.81503 0.211946 6.40077 0 10.0462 0H44.5087Z" fill="white"/>
</svg>
