<?xml version="1.0" encoding="UTF-8" standalone="no"?>
<!-- Created with Inkscape (http://www.inkscape.org/) -->

<svg
   width="197.59962mm"
   height="109.25355mm"
   viewBox="0 0 197.59962 109.25355"
   version="1.1"
   id="svg1"
   xml:space="preserve"
   xmlns="http://www.w3.org/2000/svg"
   xmlns:svg="http://www.w3.org/2000/svg"><defs
     id="defs1" /><g
     id="layer1"
     transform="translate(-6.0208975,-79.604131)"><path
       style="fill:#2177d6;fill-opacity:1"
       d="m 156.29959,188.49785 c -0.2015,-0.20013 -0.375,-0.48668 -0.38554,-0.63678 -0.0106,-0.1501 -0.0587,-0.53341 -0.10695,-0.8518 -0.0483,-0.31839 -0.253,-1.8739 -0.45494,-3.4567 -0.57811,-4.53105 -1.46134,-7.4735 -2.34431,-7.81002 -0.60047,-0.22885 -1.38211,0.11518 -1.77053,0.77928 -0.57729,0.98703 -1.58465,4.13723 -1.97979,6.19118 -0.19469,1.01198 -0.50518,2.13037 -0.68998,2.48531 -0.39486,0.75837 -1.4315,1.34784 -2.37029,1.34784 -1.16311,0 -1.43468,-0.40665 -1.70103,-2.54712 -0.53642,-4.31089 -1.52178,-7.67414 -2.69651,-9.20379 -0.49077,-0.63904 -0.73079,-0.76645 -1.33425,-0.70828 -1.51012,0.14559 -2.61885,3.68575 -2.85053,9.10163 -0.16138,3.77261 -0.19207,3.91397 -0.92157,4.24409 -0.94253,0.42651 -2.61867,0.34836 -2.87335,-0.13397 -0.2696,-0.51059 -0.66626,-3.08554 -0.84716,-5.49946 -0.136,-1.81469 -0.46442,-3.68669 -1.16352,-6.63212 -0.50964,-2.14718 -0.45965,-2.67894 0.32514,-3.45838 0.57513,-0.57121 0.86716,-0.67686 1.87093,-0.67686 1.01305,0 1.22197,0.0773 1.40884,0.52101 0.29054,0.68993 0.81595,1.33144 1.09046,1.33144 0.12147,0 0.55864,-0.47596 0.97149,-1.05769 0.52714,-0.74276 1.1182,-1.22481 1.98506,-1.61897 1.20225,-0.54665 1.27019,-0.55202 2.60746,-0.20608 1.82752,0.47276 2.74294,1.2138 3.48722,2.82293 1.17219,2.53427 1.13972,2.49115 1.8755,2.49115 0.58855,0 0.78133,-0.16961 1.31588,-1.15778 1.79273,-3.31398 5.44114,-4.16661 7.4885,-1.75005 1.80719,2.13308 3.66087,9.2889 3.66087,14.13218 0,1.39168 -0.0677,1.64783 -0.51817,1.96122 -0.68537,0.47678 -2.59758,0.47466 -3.07893,-0.003 z m -66.553958,-1.19452 c -0.584509,-0.47551 -0.731084,-1.27041 -1.331943,-7.22335 -0.437986,-4.3393 -0.640294,-4.88007 -1.825696,-4.88007 -1.068878,0 -6.500607,1.36326 -6.862054,1.72225 -0.326042,0.32382 -0.297199,0.68417 0.297059,3.71129 0.373381,1.90197 0.592489,3.61253 0.506382,3.95327 -0.163447,0.64679 -1.301711,1.26477 -2.329575,1.26477 -1.22583,0 -1.714209,-0.81342 -2.363454,-3.93645 -0.858351,-4.12889 -2.567072,-9.14849 -3.312464,-9.73082 -1.21261,-0.94733 -1.866415,-0.45504 -2.724886,2.05177 -0.545156,1.5919 -1.225548,4.82207 -1.736087,8.24209 -0.303341,2.03205 -0.723251,2.48633 -2.427976,2.62673 -1.687496,0.13899 -2.027193,-0.3041 -2.027193,-2.64419 0,-1.6243 -0.512373,-8.42383 -0.894808,-11.8747 -0.104811,-0.94575 -0.143505,-1.96405 -0.08599,-2.26289 0.160987,-0.8364 1.128064,-1.45913 2.265987,-1.45913 1.082196,0 1.36575,0.22431 1.609891,1.27355 0.444023,1.90828 0.647178,2.43134 0.944316,2.43134 0.178337,0 0.778981,-0.59915 1.334764,-1.33145 1.66523,-2.19409 3.643909,-2.87638 5.546294,-1.91247 1.168798,0.59221 1.870469,1.52252 3.032534,4.02066 0.516242,1.10978 1.09255,2.07646 1.280686,2.14816 0.188136,0.0717 0.685703,-0.0802 1.105705,-0.33755 0.776882,-0.47603 4.071388,-1.42886 4.945876,-1.43043 0.679325,-0.001 1.926684,-0.80644 2.102754,-1.35741 0.08155,-0.25519 -0.223826,-2.43147 -0.678619,-4.83617 -0.454793,-2.4047 -0.826896,-4.58815 -0.826896,-4.85212 0,-0.95604 0.724025,-1.48279 2.219317,-1.61461 2.190945,-0.19315 2.305533,0.0101 3.032208,5.37935 0.699196,5.16618 0.683614,5.10473 1.415236,5.58084 0.469227,0.30536 0.940577,0.34187 2.674355,0.20716 3.864597,-0.30026 6.897545,-0.7688 7.725185,-1.19341 0.91511,-0.46949 2.36306,-0.4136 2.83982,0.10963 0.47736,0.52387 0.74189,2.76177 1.0711,9.06117 0.34134,6.53176 0.32199,7.32735 -0.19058,7.83644 -0.23627,0.23465 -0.94445,0.49778 -1.57373,0.58474 -1.64189,0.22687 -1.86007,-0.11665 -2.07039,-3.25977 -0.37775,-5.64533 -0.76898,-9.36902 -1.00945,-9.60786 -0.18488,-0.18361 -1.3643,-0.16994 -4.278655,0.0496 -3.681445,0.27732 -4.06937,0.34871 -4.563992,0.83997 -0.35951,0.35705 -0.502282,0.71302 -0.426261,1.06277 0.06287,0.28924 0.387374,2.61034 0.721122,5.158 0.65265,4.98201 0.613767,5.57751 -0.405666,6.21292 -0.930976,0.58028 -2.157192,0.67767 -2.724229,0.21638 z m 101.294598,-0.0873 c -1.88601,-0.27317 -4.11888,-1.36003 -5.31684,-2.58799 -0.54821,-0.56194 -1.35589,-1.76263 -1.79484,-2.6682 -0.6514,-1.34386 -0.91967,-1.67301 -1.45955,-1.79078 -0.96358,-0.21019 -1.35611,-0.71496 -1.35611,-1.74388 0,-0.94374 0.61445,-1.83591 1.26441,-1.83591 0.51112,0 1.66847,-1.06397 2.862,-2.63109 1.58694,-2.08367 2.79661,-3.14504 4.49996,-3.94829 1.43292,-0.67572 1.6678,-0.71452 4.31319,-0.71252 2.65468,0.002 2.86097,0.0368 4.03424,0.68033 2.34455,1.28598 3.30578,2.8485 3.30853,5.37813 0.002,1.49046 -0.6374,2.33262 -2.43142,3.20437 -1.07884,0.52423 -1.69706,0.63189 -4.61792,0.80419 -4.62718,0.27294 -6.00549,0.69885 -6.00549,1.85574 0,1.19544 3.47744,2.46224 6.14872,2.23993 1.40545,-0.11697 2.1046,-0.35384 4.53465,-1.53631 1.58016,-0.76892 3.00445,-1.39803 3.16511,-1.39803 0.40716,0 1.21486,0.9327 1.37506,1.58786 0.23509,0.96143 -0.2283,1.57526 -2.03223,2.69193 -2.05003,1.26902 -4.30369,2.10142 -6.57046,2.42684 -1.8193,0.26118 -2.01053,0.26039 -3.92101,-0.0163 z m 2.31278,-11.46498 c 1.66699,-0.21689 3.12771,-0.4789 3.24605,-0.58223 0.35917,-0.31362 -0.25344,-1.30612 -1.06274,-1.72177 -0.96122,-0.49368 -3.92037,-0.36481 -5.04964,0.21991 -0.82125,0.42523 -1.6777,1.60412 -1.67913,2.3113 -7.2e-4,0.35904 0.12563,0.40897 0.75685,0.29907 0.41675,-0.0726 2.12163,-0.30938 3.78861,-0.52628 z m -147.4968,10.95903 c -2.478078,-0.84731 -4.049507,-2.32111 -5.248667,-4.92257 -0.607464,-1.31783 -1.062752,-1.66928 -2.686974,-2.07416 -0.513927,-0.12811 -0.673265,-0.0242 -1.130408,0.73684 -1.410957,2.34905 -3.580952,3.81554 -7.648856,5.16912 -3.667728,1.22043 -8.185255,1.17199 -13.290353,-0.1425 -3.615786,-0.93102 -3.929166,-1.21841 -3.378862,-3.09866 0.579258,-1.97918 0.244973,-5.88409 -0.882108,-10.30424 -0.719559,-2.82195 -0.794479,-2.89445 -2.9907947,-2.89445 -2.4598136,0 -2.5782901,-0.0604 -2.5782901,-1.31356 0,-1.90904 0.3776939,-2.15979 4.1078608,-2.72716 3.124193,-0.4752 4.631658,-0.45307 8.441605,0.12393 8.608875,1.30376 15.234412,5.00384 17.882235,9.98645 0.454292,0.85488 0.914147,1.60844 1.0219,1.67458 0.277537,0.17036 2.383481,-0.55682 2.905368,-1.00322 0.239993,-0.20528 0.829844,-0.94633 1.31078,-1.64679 1.256063,-1.82939 3.020452,-3.37271 4.835379,-4.22954 1.46413,-0.69121 1.753599,-0.74492 4.025592,-0.74684 2.860963,-0.002 3.971415,0.28008 5.420508,1.379 2.126381,1.61255 2.819222,4.60513 1.518227,6.55766 -0.867858,1.30249 -2.469379,1.86687 -6.114582,2.1548 -3.777881,0.29841 -5.873202,0.64624 -6.19214,1.02792 -0.69136,0.82736 1.022863,2.43714 3.056534,2.87031 2.582136,0.55 4.958592,0.0514 8.292541,-1.73989 1.045576,-0.56178 2.059174,-1.02141 2.25244,-1.02141 0.546704,0 1.558568,1.34896 1.558568,2.07779 0,1.19636 -2.670889,2.95971 -6.166581,4.07122 -2.362703,0.75126 -6.179756,0.76749 -8.320922,0.0354 z m -18.703807,-4.3965 c 3.060608,-0.88094 5.447663,-2.78177 5.44389,-4.33499 -0.0025,-1.04574 -1.055752,-2.87193 -2.294003,-3.97763 -2.376664,-2.12226 -5.39639,-3.4244 -10.176112,-4.38806 -3.377931,-0.68103 -3.974233,-0.68337 -4.174016,-0.0164 -0.0648,0.21636 0.222285,2.86152 0.637978,5.87814 0.851204,6.17704 0.866184,6.21313 2.807034,6.76234 2.720333,0.76977 5.259798,0.79485 7.755229,0.0766 z m 22.152014,-6.42733 c 1.775914,-0.25929 3.412536,-0.52681 3.636938,-0.59449 0.627309,-0.1892 0.485443,-0.91219 -0.30932,-1.57638 -0.596719,-0.49868 -0.95175,-0.59947 -2.111637,-0.59947 -2.105664,0 -3.355489,0.39279 -4.165585,1.30915 -0.655288,0.74125 -0.956913,1.93263 -0.489286,1.93263 0.115476,0 1.662977,-0.21214 3.43889,-0.47144 z m 69.682063,10.5174 c -3.42087,-0.74815 -5.8551,-2.4852 -7.15353,-5.1047 -0.6105,-1.23165 -0.76822,-1.86604 -0.85036,-3.42017 -0.0982,-1.85855 -0.0842,-1.92105 0.5407,-2.40923 0.79999,-0.62499 1.35987,-0.63187 2.34237,-0.0288 0.56794,0.34861 0.8737,0.78854 1.16683,1.67878 1.17113,3.55683 3.48627,5.37743 7.19215,5.65579 1.62952,0.1224 1.75822,0.0964 2.32913,-0.47062 1.07797,-1.07063 0.85783,-1.77198 -1.20258,-3.83137 -1.36637,-1.36569 -2.70612,-2.35848 -5.49541,-4.07221 -5.07324,-3.11698 -7.39776,-5.36026 -7.38074,-7.12279 0.0162,-1.68235 1.65377,-3.43197 4.04115,-4.3178 2.85775,-1.06036 8.47385,-1.28132 9.48424,-0.37316 0.74572,0.67027 0.61885,2.01709 -0.25913,2.75082 -0.6957,0.5814 -0.81408,0.59947 -3.92733,0.59947 -2.83051,0 -3.25629,0.0508 -3.60148,0.42963 -0.24136,0.26488 -0.33151,0.59785 -0.2351,0.86833 0.18893,0.53008 1.2586,1.71227 1.54928,1.71227 0.11456,0 0.80311,0.37784 1.53011,0.83965 7.78276,4.94384 9.93935,7.11356 10.2487,10.31109 0.44423,4.59176 -4.4577,7.58689 -10.319,6.30501 z m 45.73078,-0.19708 c -0.40644,-0.40367 -0.50444,-1.38635 -0.99323,-9.95986 l -0.36937,-6.47878 0.61547,-0.52579 c 0.45464,-0.38841 0.90722,-0.5258 1.73205,-0.5258 1.73773,0 1.80924,0.1646 2.11269,4.86268 0.14395,2.22873 0.36063,5.51104 0.4815,7.29402 0.30395,4.48349 0.29495,4.67909 -0.2396,5.21001 -0.58051,0.57655 -2.80068,0.65867 -3.33951,0.12352 z m 10.29987,-1.55262 c -0.27687,-0.22193 -0.49075,-1.14571 -0.76817,-3.3178 -0.80413,-6.29595 -1.29285,-10.02362 -2.12507,-16.20893 -0.6947,-5.16314 -0.69373,-5.09763 -0.0814,-5.52358 1.20494,-0.83822 3.65975,-0.25683 4.03821,0.95639 0.0685,0.21955 0.7643,5.2827 1.54625,11.25145 1.53421,11.711 1.53482,11.7351 0.31671,12.5278 -0.79455,0.51706 -2.4517,0.69524 -2.92649,0.31467 z m -10.18656,-21.27236 c -2.8128,-1.25074 -1.23755,-4.70646 1.7695,-3.88183 2.56538,0.70351 2.55354,3.5372 -0.0172,4.11304 -0.60137,0.13471 -1.0678,0.0732 -1.75231,-0.23121 z m -61.97121,0.0109 c -1.33094,-0.53344 -1.70922,-2.61899 -0.62821,-3.46351 0.84672,-0.6615 1.5396,-0.79845 2.48005,-0.49019 1.01078,0.33132 1.74736,1.1089 1.93551,2.04327 0.12322,0.61188 0.031,0.84779 -0.56134,1.43609 -0.57884,0.5749 -0.89372,0.70126 -1.71758,0.68927 -0.55484,-0.008 -1.23363,-0.10479 -1.50843,-0.21493 z M 20.924152,145.94675 c -3.602879,-1.56241 -7.209466,-4.50882 -7.209466,-5.88978 0,-0.63029 0.720981,-1.67447 1.156182,-1.67447 0.11299,0 1.323811,0.8336 2.690713,1.85245 3.710906,2.76599 4.050565,2.60774 3.594164,-1.67456 -0.166521,-1.56243 -0.308923,-4.24749 -0.316449,-5.96679 -0.01321,-3.01878 0.01002,-3.17248 0.677351,-4.48055 1.203682,-2.3594 3.652188,-4.13056 7.222476,-5.22446 1.898037,-0.58154 5.388394,-1.17587 6.913358,-1.1772 1.045465,-9.1e-4 1.843009,-0.47356 1.843009,-1.09222 0,-0.13441 -0.40572,-1.22031 -0.901601,-2.41311 l -0.9016,-2.16872 -2.012714,-0.79967 c -1.710191,-0.67947 -2.012713,-0.87959 -2.012713,-1.33145 0,-0.61139 0.595754,-1.27312 1.619617,-1.79897 0.851913,-0.43754 0.875965,-0.75603 0.236547,-3.13237 -0.769078,-2.85823 -1.362213,-6.44174 -1.513901,-9.14647 -0.209215,-3.73048 -0.240187,-3.87019 -0.971323,-4.38136 -0.359281,-0.25119 -1.16549,-0.95612 -1.791574,-1.56651 -1.04854,-1.02226 -1.127489,-1.17619 -1.000833,-1.95136 0.164973,-1.00968 0.749372,-1.71243 1.417581,-1.70468 0.268643,0.003 1.537595,0.68352 2.819894,1.51201 9.729631,6.28625 23.714337,10.30171 37.186648,10.67746 8.087437,0.22556 13.495422,-0.27198 19.440539,-1.78855 8.595693,-2.19273 14.454273,-5.25756 19.768233,-10.34147 2.78207,-2.66162 3.27732,-2.86383 3.8251,-1.56176 0.43482,1.03359 0.13412,2.32244 -0.72996,3.12867 -1.20009,1.11974 -1.52626,1.99572 -2.32785,6.25174 -2.13071,11.31287 -4.48356,19.55237 -7.32388,25.64764 -1.08101,2.31983 -1.3711,3.15562 -1.20146,3.46157 0.123,0.22183 0.88688,1.04125 1.69749,1.82093 4.16914,4.01003 9.70282,7.0373 12.30441,6.73128 2.35021,-0.27645 3.95844,-1.39524 6.51805,-4.53438 4.89291,-6.00073 6.72266,-7.29132 7.93666,-5.59803 0.93502,1.30416 1.64264,3.93164 2.11141,7.8399 0.26298,2.19255 0.2528,2.41927 -0.12743,2.83656 -0.53456,0.58665 -0.88152,0.57201 -1.59888,-0.0675 -0.50249,-0.44793 -0.63758,-0.89443 -0.96326,-3.18389 -0.20834,-1.46459 -0.51517,-2.80252 -0.68186,-2.97318 -0.56819,-0.58172 -1.64841,0.31263 -3.86242,3.19778 -3.61448,4.71016 -5.96435,6.33574 -9.19606,6.36161 -3.86238,0.0309 -8.23548,-2.27922 -13.56505,-7.16589 -1.18017,-1.08209 -2.305287,-1.96744 -2.500265,-1.96744 -0.194978,0 -0.806216,0.54157 -1.358307,1.20349 -5.486581,6.57806 -10.906697,10.01588 -17.99617,11.41443 -5.003711,0.9871 -8.46551,0.98201 -13.406926,-0.0197 -2.138768,-0.43357 -5.66317,-1.41736 -6.787355,-1.89461 -1.944593,-0.82553 -3.421401,-1.49648 -3.963467,-1.8007 -0.320574,-0.17992 -0.899063,-0.47639 -1.285531,-0.65882 -3.033481,-1.43199 -8.778138,-6.65644 -12.059478,-10.96744 -1.064525,-1.39857 -1.837806,-2.1957 -2.223197,-2.29176 -1.070641,-0.26689 -6.630055,0.12633 -8.636429,0.61085 -3.695551,0.89243 -7.048591,2.95525 -7.740156,4.7618 -0.282098,0.73692 -0.277466,4.21446 0.0089,6.70492 0.621994,5.40877 0.509431,7.90777 -0.396732,8.80776 -0.445144,0.44211 -0.378523,0.45401 -2.424067,-0.43306 z m 55.585467,-5.36441 c 6.854212,-0.89239 11.077361,-2.72829 15.16053,-6.59064 4.861239,-4.59835 9.158521,-13.20822 11.788281,-23.61855 1.22776,-4.8603 2.64023,-11.76851 2.4641,-12.05156 -0.25806,-0.4147 -0.83897,-0.244 -2.69229,0.79113 -2.9646,1.6558 -6.404921,3.1384 -10.013064,4.3151 l -3.380604,1.10249 0.03996,0.76817 c 0.02198,0.42249 0.322051,1.39647 0.666827,2.16439 0.344775,0.76793 0.757974,1.70883 0.918218,2.0909 0.160245,0.38206 0.406275,0.95516 0.546735,1.27355 0.140459,0.31839 0.407879,0.9596 0.594265,1.42492 0.384367,0.95956 1.126545,1.31948 1.757807,0.85245 0.229812,-0.17003 1.081806,-0.80918 1.893322,-1.42035 1.272443,-0.9583 1.602906,-1.10168 2.401476,-1.042 0.532691,0.0398 1.02493,0.2261 1.158929,0.43859 0.490929,0.77851 -0.04588,1.50217 -2.626625,3.54088 -2.916582,2.304 -2.855904,2.15975 -2.105151,5.00464 0.575732,2.18167 0.593015,3.29347 0.05829,3.7496 -0.672714,0.57382 -1.20905,0.66239 -2.006669,0.3314 -0.653104,-0.27103 -0.815678,-0.51618 -1.188555,-1.79226 -0.537402,-1.83914 -0.945051,-2.52029 -1.508309,-2.52029 -0.240837,0 -1.628546,0.45187 -3.083798,1.00416 -2.612926,0.99163 -5.571574,1.85827 -7.227103,2.11694 -1.505474,0.23522 -1.504371,0.22689 -0.833376,6.29235 0.393224,3.55455 0.531559,5.64644 0.396692,5.99875 -0.323941,0.84622 -1.20741,1.31869 -1.945011,1.04016 -0.337883,-0.12758 -0.619004,-0.3127 -0.624713,-0.41137 -0.0057,-0.0987 -0.357963,-2.72285 -0.782787,-5.8315 -0.63524,-4.64839 -0.848324,-5.70724 -1.199906,-5.96257 -0.634098,-0.46051 -9.157111,-0.44468 -9.794481,0.0182 -0.414781,0.30122 -0.453486,0.6408 -0.463599,4.06745 -0.01213,4.10944 -0.0302,4.16132 -1.451894,4.16792 -1.01448,0.005 -1.087269,-0.23673 -1.427584,-4.73534 -0.153817,-2.03328 -0.317811,-3.73477 -0.364433,-3.78107 -0.08469,-0.0841 -2.13494,-0.53305 -4.555417,-0.99749 -0.705264,-0.13532 -1.722189,-0.34166 -2.259834,-0.45853 -1.884982,-0.40974 -2.09875,-0.33322 -2.271849,0.81321 -0.217713,1.44192 -0.915147,2.26099 -1.848481,2.17087 l -0.730763,-0.0706 -0.233145,-1.95064 c -0.216003,-1.80722 -0.284142,-1.98126 -0.926775,-2.36708 -0.381496,-0.22904 -1.163452,-0.48641 -1.73768,-0.57194 -0.574228,-0.0855 -1.859128,-0.45093 -2.855333,-0.81203 -2.891835,-1.04819 -3.165684,-0.56817 -1.428962,2.50481 2.519924,4.45879 6.994604,9.53787 11.09671,12.59557 3.748241,2.79393 6.671441,4.18174 11.239619,5.3361 5.668884,1.4325 7.143682,1.56346 11.386431,1.01108 z M 74.44453,120.1767 c 0.245635,-0.24396 0.332656,-0.58952 0.247828,-0.98411 -0.0719,-0.33448 -0.238222,-1.44174 -0.369598,-2.46059 -0.131376,-1.01884 -0.337579,-2.58185 -0.458229,-3.47334 -0.12065,-0.89149 -0.337191,-2.55243 -0.4812,-3.69097 -0.435026,-3.43932 0.03807,-3.13993 -4.961793,-3.13993 -3.147983,0 -4.354771,0.0771 -4.532122,0.28944 -0.167394,0.20045 -0.143671,1.571 0.07715,4.45746 0.175378,2.2924 0.378887,4.94951 0.452243,5.90468 0.157335,2.04866 0.30472,2.78724 0.635092,3.1826 0.179177,0.21442 1.393867,0.29074 4.627506,0.29074 3.734996,0 4.44064,-0.0557 4.763118,-0.37598 z m 10.772288,-2.06495 c 4.059608,-1.40283 4.863074,-1.94124 4.585129,-3.07249 -0.327702,-1.33377 -3.592678,-8.74402 -3.982572,-9.03892 -0.411024,-0.31088 -3.566529,-0.26088 -7.102236,0.11252 -2.484404,0.26238 -2.614302,0.71703 -1.821334,6.37469 0.995623,7.10356 0.966089,6.9934 1.974851,7.36586 0.553473,0.20436 1.336667,-0.0106 6.346162,-1.74166 z m -23.853296,1.22526 c 0.288425,-0.45382 0.264407,-1.33495 -0.186252,-6.83311 -0.442461,-5.39813 -0.577126,-6.35551 -0.930021,-6.61179 -0.521932,-0.37905 -6.47721,-1.43782 -6.989373,-1.24263 -0.716563,0.2731 -0.841098,1.32338 -0.841098,7.09349 0,5.1848 0.04102,5.79849 0.418587,6.26158 0.335084,0.411 1.067606,0.64168 3.672036,1.15639 4.137513,0.8177 4.441333,0.82871 4.856121,0.17607 z M 49.610834,116.863 c 0.369182,-0.68512 0.323616,-12.55409 -0.05008,-13.04558 -0.399454,-0.52536 -12.932736,-5.08274 -13.492673,-4.90624 -0.313712,0.0989 -0.437748,0.35825 -0.437748,0.91533 0,0.94787 2.896983,13.50876 3.179304,13.78499 0.314,0.30723 9.464045,3.6611 10.043479,3.68135 0.285758,0.01 0.624162,-0.18199 0.757722,-0.42985 z m 65.211826,1.88451 c -0.56388,-0.62395 -0.41752,-1.48129 0.31016,-1.81679 0.42428,-0.19561 7.65938,-0.31407 26.59199,-0.43539 24.56992,-0.15744 26.03166,-0.14428 26.41634,0.23779 0.57099,0.56709 0.40553,1.55097 -0.31753,1.88819 -0.42846,0.19983 -7.46932,0.31509 -26.57854,0.43512 -25.97055,0.16312 -25.9961,0.16282 -26.42242,-0.30892 z m -4.76075,-5.39665 c -0.42617,-0.43958 -0.35659,-1.70038 0.11658,-2.11219 0.35966,-0.31304 5.50853,-0.40495 43.46097,-0.77589 35.64214,-0.34835 43.11671,-0.36824 43.42328,-0.11554 0.47522,0.39171 0.47923,1.72294 0.006,2.11271 -0.4252,0.35048 -0.50526,0.35231 -24.23286,0.55337 -9.36078,0.0793 -19.27527,0.18941 -22.03221,0.24464 -2.75694,0.0552 -12.98619,0.16636 -22.73165,0.24696 -14.37076,0.11885 -17.7741,0.0897 -18.01047,-0.15406 z m 9.32581,-7.41392 c -0.16029,-0.16306 -0.29143,-0.62757 -0.29143,-1.03225 0,-0.92267 0.31149,-1.17877 1.63201,-1.34177 0.57704,-0.0712 14.48648,-0.19568 30.90987,-0.27656 27.71776,-0.13651 29.88869,-0.11927 30.25058,0.24015 0.47873,0.47546 0.50906,1.58852 0.0535,1.96401 -0.39975,0.32951 -4.02077,0.38601 -38.13259,0.59504 -19.4566,0.11922 -24.18697,0.0904 -24.42195,-0.14862 z m -3.55225,-9.92233 c -0.2978,-0.18701 -0.3025,-0.32483 -0.0334,-0.98057 0.80168,-1.95359 0.943,-2.44704 0.95254,-3.32595 0.0273,-2.51251 -1.82112,-5.48849 -5.48464,-8.83033 l -2.08234,-1.8995 0.35699,-0.64761 c 0.49408,-0.89631 1.51188,-0.97141 2.44075,-0.1801 5.14312,4.38142 7.74668,8.81316 7.11207,12.10606 -0.61763,3.20476 -1.8613,4.63756 -3.26196,3.758 z"
       id="path1" /></g></svg>
